<svg xmlns="http://www.w3.org/2000/svg" width="1024" height="1024"><path d="M243 44.882c-8.021 2.589-11.224 4.492-16.955 10.074-6.273 6.11-10.626 15.015-11.998 24.544-.554 3.85-1.016 16.338-1.027 27.75L213 128h-3.39c-6.306 0-19.982 3.138-28.312 6.497-11.23 4.529-20.515 10.914-29.418 20.234-8.498 8.894-13.4 16.464-17.731 27.383C127.982 197.66 128 197.334 128 295.11V384h768v-88.89c0-98.489.053-97.569-6.497-113.812-4.529-11.23-10.914-20.515-20.234-29.418-8.894-8.498-16.464-13.4-27.383-17.731-7.804-3.096-21.457-6.149-27.496-6.149H811l-.02-20.75c-.023-24.457-1.002-32.538-4.967-41.025-3.198-6.846-10.855-15.085-16.859-18.143-13.111-6.678-29.197-6.678-42.308 0-6.004 3.058-13.661 11.297-16.859 18.143-3.965 8.487-4.944 16.568-4.967 41.025L725 128H299l-.02-20.75c-.023-24.457-1.002-32.538-4.967-41.025-3.198-6.846-10.855-15.085-16.859-18.143-10.209-5.2-23.963-6.488-34.154-3.2M214 512v42h84v-84h-84v42m128 0v42h84v-84h-84v42m128 0v42h84v-84h-84v42m128 0v42h84v-84h-84v42m128 0v42h84v-84h-84v42M214 640v42h84v-84h-84v42m128 0v42h84v-84h-84v42m128 0v42h84v-84h-84v42m128 0v42h84v-84h-84v42m128 0v42h84v-84h-84v42M214 768v42h84v-84h-84v42m128 0v42h84v-84h-84v42m128 0v42h84v-84h-84v42m128 0v42h84v-84h-84v42m128 0v42h84v-84h-84v42m-597.512 75.5c.438 27.38 2.618 37.527 11.175 52 11.376 19.242 29.785 33.615 50.837 39.691l8 2.309h627l8-2.309c21.052-6.076 39.461-20.449 50.837-39.691 8.557-14.473 10.737-24.62 11.175-52 .194-12.1.132-20.875-.136-19.5-6.784 34.711-29.198 59.71-62.078 69.24l-7.798 2.26h-627l-7.798-2.26c-32.743-9.49-55.322-34.675-62.078-69.24-.268-1.375-.33 7.4-.136 19.5" fill="undefined" fill-rule="evenodd"/></svg>